<svg xmlns:xlink="http://www.w3.org/1999/xlink" viewBox="0 0 24 24" width="24" height="24" x="0" y="0" preserveAspectRatio="xMinYMin meet" class="nav-icon" focusable="false" xmlns="http://www.w3.org/2000/svg"><path d="M9,2h6V8H9V2ZM2,15H8V9H2v6Zm7,0h6V9H9v6ZM2,8H8V2H2V8ZM2,22H8V16H2v6Zm14-7h6V9H16v6ZM16,2V8h6V2H16ZM9,22h6V16H9v6Zm7,0h6V16H16v6Z" class="active-item" style="fill-opacity: 1" fill="#C0D1E2"></path><path d="M10,10h4v4H10V10Zm0,11h4V17H10v4ZM3,14H7V10H3v4Zm0,7H7V17H3v4ZM3,7H7V3H3V7Zm14,7h4V10H17v4ZM17,3V7h4V3H17ZM10,7h4V3H10V7Zm7,14h4V17H17v4Z" class="inactive-item" style="" fill="#C0D1E2"></path></svg>