<svg xmlns:xlink="http://www.w3.org/1999/xlink" xmlns="http://www.w3.org/2000/svg" viewBox="0 0 21 21" data-supported-dps="21x21" fill="currentColor" class="mercado-match" width="21" height="21" focusable="false">
  <g fill-opacity="0.9" fill="#000000">
    <path class="background-mercado" d="M19.5 0h-18A1.5 1.5 0 000 1.5v18A1.5 1.5 0 001.5 21h18a1.5 1.5 0 001.5-1.5v-18A1.5 1.5 0 0019.5 0zM6 18H3V8h3zM4.5 6.25a1.75 1.75 0 110-3.5 1.75 1.75 0 110 3.5zM18 18h-3v-5.09c0-1.62-.74-2.44-1.84-2.44A2.31 2.31 0 0011 13v5H8V8h3v1.39a4.06 4.06 0 013.3-1.63c1.77 0 3.66.93 3.66 4z" fill="#C37D16" fill-opacity="0.9"></path>
  </g>
</svg>